<mxfile host="app.diagrams.net" modified="2023-08-30T13:53:56.178Z" agent="Mozilla/5.0 (Windows NT 10.0; Win64; x64) AppleWebKit/537.36 (KHTML, like Gecko) Chrome/116.0.0.0 Safari/537.36" version="21.6.9" etag="VL-NsRVouQTWukKRq1vC" type="github">
  <diagram name="Page-1" id="A3vfU5oLFFB9rx-CVLOW">
    <mxGraphModel>
      <root>
        <mxCell id="0" />
        <mxCell id="1" parent="0" />
      </root>
    </mxGraphModel>
  </diagram>
</mxfile>
